<svg width="578" height="172" viewBox="0 0 578 172" fill="none" xmlns="http://www.w3.org/2000/svg">
<path d="M101.19 0H56.9511V63.6164H44.9972V0H0.758179V172H44.9972V107.912H56.9511V172H101.19V127.893L56.9511 84.2564L101.19 39.9606V0Z" fill="white"/>
<path d="M163.219 0H118.98V172H163.219V0Z" fill="white"/>
<path d="M340 64H182V108H340V64Z" fill="white"/>
<path d="M414.722 0H402.768C378.201 0 358.529 19.6975 358.529 44.2959V171.906H402.768V44.2959H414.722V171.906H458.961V44.2959C459.055 19.6975 439.289 0 414.722 0Z" fill="white"/>
<path d="M532.944 0H520.99C496.423 0 476.751 19.6975 476.751 44.2959V127.61C476.751 152.208 496.423 171.906 520.99 171.906H532.944C557.51 171.906 577.183 152.208 577.183 127.61V44.2959C577.277 19.6975 557.51 0 532.944 0ZM521.084 44.2959H533.038V127.61H521.084V44.2959Z" fill="white"/>
</svg>
